<mxfile host="Electron" modified="2024-04-04T08:30:04.903Z" agent="Mozilla/5.0 (Windows NT 10.0; Win64; x64) AppleWebKit/537.36 (KHTML, like Gecko) draw.io/24.1.0 Chrome/120.0.6099.109 Electron/28.1.0 Safari/537.36" etag="DRVcunCW4Sqc7lqmuVhG" version="24.1.0" type="device">
  <diagram name="페이지-1" id="0nFJyYFoTXE0C7tLQQCE">
    <mxGraphModel dx="1098" dy="820" grid="1" gridSize="10" guides="1" tooltips="1" connect="1" arrows="1" fold="1" page="1" pageScale="1" pageWidth="827" pageHeight="1169" math="0" shadow="0">
      <root>
        <mxCell id="0" />
        <mxCell id="1" parent="0" />
        <mxCell id="eaXOMASfzGBptmgVeXri-14" value="이동" style="edgeStyle=orthogonalEdgeStyle;rounded=0;orthogonalLoop=1;jettySize=auto;html=1;exitX=1;exitY=0.5;exitDx=0;exitDy=0;entryX=0;entryY=0.5;entryDx=0;entryDy=0;" edge="1" parent="1" source="eaXOMASfzGBptmgVeXri-1" target="eaXOMASfzGBptmgVeXri-7">
          <mxGeometry relative="1" as="geometry" />
        </mxCell>
        <mxCell id="eaXOMASfzGBptmgVeXri-16" style="edgeStyle=orthogonalEdgeStyle;rounded=0;orthogonalLoop=1;jettySize=auto;html=1;entryX=0.5;entryY=0;entryDx=0;entryDy=0;" edge="1" parent="1" source="eaXOMASfzGBptmgVeXri-1" target="eaXOMASfzGBptmgVeXri-5">
          <mxGeometry relative="1" as="geometry" />
        </mxCell>
        <mxCell id="eaXOMASfzGBptmgVeXri-20" value="이동" style="edgeLabel;html=1;align=center;verticalAlign=middle;resizable=0;points=[];" vertex="1" connectable="0" parent="eaXOMASfzGBptmgVeXri-16">
          <mxGeometry y="2" relative="1" as="geometry">
            <mxPoint as="offset" />
          </mxGeometry>
        </mxCell>
        <mxCell id="eaXOMASfzGBptmgVeXri-26" style="edgeStyle=orthogonalEdgeStyle;rounded=0;orthogonalLoop=1;jettySize=auto;html=1;entryX=1;entryY=0.5;entryDx=0;entryDy=0;" edge="1" parent="1" source="eaXOMASfzGBptmgVeXri-1" target="eaXOMASfzGBptmgVeXri-6">
          <mxGeometry relative="1" as="geometry" />
        </mxCell>
        <mxCell id="eaXOMASfzGBptmgVeXri-30" value="이동" style="edgeLabel;html=1;align=center;verticalAlign=middle;resizable=0;points=[];" vertex="1" connectable="0" parent="eaXOMASfzGBptmgVeXri-26">
          <mxGeometry x="-0.0571" y="2" relative="1" as="geometry">
            <mxPoint as="offset" />
          </mxGeometry>
        </mxCell>
        <mxCell id="eaXOMASfzGBptmgVeXri-1" value="목록보기" style="whiteSpace=wrap;html=1;" vertex="1" parent="1">
          <mxGeometry x="280" y="220" width="100" height="120" as="geometry" />
        </mxCell>
        <mxCell id="eaXOMASfzGBptmgVeXri-18" style="edgeStyle=orthogonalEdgeStyle;rounded=0;orthogonalLoop=1;jettySize=auto;html=1;entryX=0;entryY=0.5;entryDx=0;entryDy=0;fillColor=#e51400;strokeColor=#B20000;strokeWidth=3;" edge="1" parent="1" source="eaXOMASfzGBptmgVeXri-5" target="eaXOMASfzGBptmgVeXri-17">
          <mxGeometry relative="1" as="geometry" />
        </mxCell>
        <mxCell id="eaXOMASfzGBptmgVeXri-25" value="전송" style="edgeLabel;html=1;align=center;verticalAlign=middle;resizable=0;points=[];" vertex="1" connectable="0" parent="eaXOMASfzGBptmgVeXri-18">
          <mxGeometry x="-0.025" y="1" relative="1" as="geometry">
            <mxPoint as="offset" />
          </mxGeometry>
        </mxCell>
        <mxCell id="eaXOMASfzGBptmgVeXri-5" value="수정하기" style="whiteSpace=wrap;html=1;" vertex="1" parent="1">
          <mxGeometry x="280" y="460" width="100" height="120" as="geometry" />
        </mxCell>
        <mxCell id="eaXOMASfzGBptmgVeXri-28" value="전송" style="edgeStyle=orthogonalEdgeStyle;rounded=0;orthogonalLoop=1;jettySize=auto;html=1;entryX=0.5;entryY=0;entryDx=0;entryDy=0;fillColor=#e51400;strokeColor=#B20000;strokeWidth=3;" edge="1" parent="1" source="eaXOMASfzGBptmgVeXri-6" target="eaXOMASfzGBptmgVeXri-27">
          <mxGeometry relative="1" as="geometry" />
        </mxCell>
        <mxCell id="eaXOMASfzGBptmgVeXri-6" value="삭제하기기" style="whiteSpace=wrap;html=1;" vertex="1" parent="1">
          <mxGeometry x="110" y="220" width="100" height="120" as="geometry" />
        </mxCell>
        <mxCell id="eaXOMASfzGBptmgVeXri-33" style="edgeStyle=orthogonalEdgeStyle;rounded=0;orthogonalLoop=1;jettySize=auto;html=1;exitX=1;exitY=0.5;exitDx=0;exitDy=0;entryX=0;entryY=0.5;entryDx=0;entryDy=0;fillColor=#e51400;strokeColor=#B20000;strokeWidth=3;" edge="1" parent="1" source="eaXOMASfzGBptmgVeXri-7" target="eaXOMASfzGBptmgVeXri-9">
          <mxGeometry relative="1" as="geometry" />
        </mxCell>
        <mxCell id="eaXOMASfzGBptmgVeXri-36" value="전송" style="edgeLabel;html=1;align=center;verticalAlign=middle;resizable=0;points=[];" vertex="1" connectable="0" parent="eaXOMASfzGBptmgVeXri-33">
          <mxGeometry y="2" relative="1" as="geometry">
            <mxPoint as="offset" />
          </mxGeometry>
        </mxCell>
        <mxCell id="eaXOMASfzGBptmgVeXri-37" style="edgeStyle=orthogonalEdgeStyle;rounded=0;orthogonalLoop=1;jettySize=auto;html=1;exitX=0;exitY=0.75;exitDx=0;exitDy=0;entryX=1;entryY=0.75;entryDx=0;entryDy=0;" edge="1" parent="1" source="eaXOMASfzGBptmgVeXri-7" target="eaXOMASfzGBptmgVeXri-1">
          <mxGeometry relative="1" as="geometry" />
        </mxCell>
        <mxCell id="eaXOMASfzGBptmgVeXri-38" value="이동" style="edgeLabel;html=1;align=center;verticalAlign=middle;resizable=0;points=[];" vertex="1" connectable="0" parent="eaXOMASfzGBptmgVeXri-37">
          <mxGeometry relative="1" as="geometry">
            <mxPoint as="offset" />
          </mxGeometry>
        </mxCell>
        <mxCell id="eaXOMASfzGBptmgVeXri-7" value="쓰기" style="whiteSpace=wrap;html=1;" vertex="1" parent="1">
          <mxGeometry x="480" y="220" width="100" height="120" as="geometry" />
        </mxCell>
        <mxCell id="eaXOMASfzGBptmgVeXri-13" style="edgeStyle=orthogonalEdgeStyle;rounded=0;orthogonalLoop=1;jettySize=auto;html=1;entryX=0.5;entryY=0;entryDx=0;entryDy=0;" edge="1" parent="1" source="eaXOMASfzGBptmgVeXri-9" target="eaXOMASfzGBptmgVeXri-1">
          <mxGeometry relative="1" as="geometry">
            <Array as="points">
              <mxPoint x="730" y="170" />
              <mxPoint x="330" y="170" />
            </Array>
          </mxGeometry>
        </mxCell>
        <mxCell id="eaXOMASfzGBptmgVeXri-34" value="이동" style="edgeLabel;html=1;align=center;verticalAlign=middle;resizable=0;points=[];" vertex="1" connectable="0" parent="eaXOMASfzGBptmgVeXri-13">
          <mxGeometry x="-0.048" y="-2" relative="1" as="geometry">
            <mxPoint as="offset" />
          </mxGeometry>
        </mxCell>
        <mxCell id="eaXOMASfzGBptmgVeXri-9" value="쓰기" style="whiteSpace=wrap;html=1;fillColor=#e3c800;fontColor=#000000;strokeColor=#B09500;" vertex="1" parent="1">
          <mxGeometry x="650" y="220" width="100" height="120" as="geometry" />
        </mxCell>
        <mxCell id="eaXOMASfzGBptmgVeXri-19" style="edgeStyle=orthogonalEdgeStyle;rounded=0;orthogonalLoop=1;jettySize=auto;html=1;entryX=0.75;entryY=1;entryDx=0;entryDy=0;" edge="1" parent="1" source="eaXOMASfzGBptmgVeXri-17" target="eaXOMASfzGBptmgVeXri-1">
          <mxGeometry relative="1" as="geometry">
            <Array as="points">
              <mxPoint x="510" y="420" />
              <mxPoint x="355" y="420" />
            </Array>
          </mxGeometry>
        </mxCell>
        <mxCell id="eaXOMASfzGBptmgVeXri-24" value="이동" style="edgeLabel;html=1;align=center;verticalAlign=middle;resizable=0;points=[];" vertex="1" connectable="0" parent="eaXOMASfzGBptmgVeXri-19">
          <mxGeometry x="-0.0182" relative="1" as="geometry">
            <mxPoint as="offset" />
          </mxGeometry>
        </mxCell>
        <mxCell id="eaXOMASfzGBptmgVeXri-17" value="수정하기" style="whiteSpace=wrap;html=1;fillColor=#e3c800;fontColor=#000000;strokeColor=#B09500;" vertex="1" parent="1">
          <mxGeometry x="460" y="460" width="100" height="120" as="geometry" />
        </mxCell>
        <mxCell id="eaXOMASfzGBptmgVeXri-29" style="edgeStyle=orthogonalEdgeStyle;rounded=0;orthogonalLoop=1;jettySize=auto;html=1;entryX=0;entryY=0.75;entryDx=0;entryDy=0;" edge="1" parent="1" source="eaXOMASfzGBptmgVeXri-27" target="eaXOMASfzGBptmgVeXri-1">
          <mxGeometry relative="1" as="geometry" />
        </mxCell>
        <mxCell id="eaXOMASfzGBptmgVeXri-31" value="이동" style="edgeLabel;html=1;align=center;verticalAlign=middle;resizable=0;points=[];" vertex="1" connectable="0" parent="eaXOMASfzGBptmgVeXri-29">
          <mxGeometry x="0.104" y="-3" relative="1" as="geometry">
            <mxPoint as="offset" />
          </mxGeometry>
        </mxCell>
        <mxCell id="eaXOMASfzGBptmgVeXri-27" value="삭제하기" style="whiteSpace=wrap;html=1;fillColor=#e3c800;fontColor=#000000;strokeColor=#B09500;" vertex="1" parent="1">
          <mxGeometry x="110" y="430" width="100" height="120" as="geometry" />
        </mxCell>
      </root>
    </mxGraphModel>
  </diagram>
</mxfile>
